<svg xmlns="http://www.w3.org/2000/svg" xmlns:xlink="http://www.w3.org/1999/xlink" width="42" height="42" id="add"><defs><linearGradient id="b" x1="1056.035" x2="1031.176" y1="544.13" y2="517.701" gradientTransform="translate(-761.02 599.375) scale(1.34562)" gradientUnits="userSpaceOnUse" xlink:href="#a"></linearGradient><linearGradient id="a"><stop offset="0" stop-color="#5a5a5a"></stop><stop offset="1" stop-color="#656e85"></stop></linearGradient></defs><g transform="translate(-623 -1293.267)"><rect width="42" height="42" x="623" y="1293.267" fill="url(#b)" rx="8.876" ry="8.876"></rect><path fill="#fff" fill-rule="evenodd" d="M653 1302.365a6.996 6.996 0 0 0-5.834 3.139c-2.78.272-5.153 2.114-6.187 4.75-.283-.043-.565-.093-.852-.094a.5.5 0 0 0-.002 0c-2.876 0-5.238 2.12-5.752 4.922-.403-.103-.804-.22-1.22-.221a.5.5 0 0 0-.003 0c-2.841 0-5.15 2.339-5.15 5.203 0 2.864 2.309 5.203 5.15 5.203h21.313c.45 0 .864-.1 1.242-.238 2.54-.735 4.293-3.082 4.295-5.748a5.996 5.996 0 0 0-2.316-4.729 6.976 6.976 0 0 0 2.316-5.187c0-3.86-3.14-7-7-7zm0 1c3.32 0 6 2.68 6 6s-2.68 6-6 6-6-2.68-6-6 2.68-6 6-6zm-.008 1.941a.5.5 0 0 0-.492.508v3.049h-3.05a.5.5 0 1 0 0 1h3.05v3.05a.5.5 0 1 0 1 0v-3.05h3.05a.5.5 0 1 0 0-1h-3.05v-3.049a.5.5 0 0 0-.508-.508zm-6.422 1.295a6.96 6.96 0 0 0-.57 2.764c0 3.86 3.14 7 7 7a6.96 6.96 0 0 0 3.869-1.172 4.995 4.995 0 0 1 2.13 4.09c-.001 2.235-1.467 4.187-3.587 4.793a.5.5 0 0 0-.035.012 2.636 2.636 0 0 1-.914.181H633.15c-2.295 0-4.15-1.873-4.15-4.203 0-2.329 1.854-4.202 4.148-4.203.479 0 .953.088 1.403.254a.5.5 0 0 0 .671-.424c.233-2.573 2.354-4.53 4.9-4.53.348 0 .694.038 1.034.112a.5.5 0 0 0 .582-.332 6.493 6.493 0 0 1 4.832-4.342z" color="#000" font-family="sans-serif" font-weight="400" overflow="visible" style="line-height:normal;text-indent:0;text-align:start;text-decoration-line:none;text-decoration-style:solid;text-decoration-color:#000;text-transform:none;block-progression:tb;isolation:auto;mix-blend-mode:normal"></path></g></svg>